<?xml version="1.0" encoding="UTF-8"?>
<svg version="1.1" xmlns="http://www.w3.org/2000/svg" width="500" height="500">
<path d="M0 0 C165 0 330 0 500 0 C500 165 500 330 500 500 C335 500 170 500 0 500 C0 335 0 170 0 0 Z " fill="#FEFEFE" transform="translate(0,0)"/>
<path d="M0 0 C0 10.89 0 21.78 0 33 C-11.3125 33.875 -11.3125 33.875 -14.8059082 34.13623047 C-24.39876506 34.90822899 -33.60659823 36.48576674 -42.875 39.0625 C-46.92325382 40.18231969 -50.87589762 41.17517952 -55 42 C-55 57.51 -55 73.02 -55 89 C-66.22 89 -77.44 89 -89 89 C-89 75.00743762 -89 75.00743762 -87.375 68.3125 C-87.19678711 67.55630371 -87.01857422 66.80010742 -86.83496094 66.02099609 C-81.44883738 44.06183413 -71.41866571 24.85649592 -52 12 C-35.49785743 2.62600186 -18.83891422 -0.75355657 0 0 Z " fill="#31C2E1" transform="translate(322,215)"/>
<path d="M0 0 C11.22 0 22.44 0 34 0 C32.87962452 17.92600773 32.87962452 17.92600773 31 25 C30.82984375 25.87269531 30.6596875 26.74539062 30.484375 27.64453125 C26.46450937 46.89350321 14.53984403 64.25403844 -1.328125 75.67578125 C-10.67048454 81.66169705 -21.98962785 86.36332306 -33 88 C-33.68835938 88.10957031 -34.37671875 88.21914063 -35.0859375 88.33203125 C-41.80744146 89.24198215 -48.09437307 89 -55 89 C-55 78.11 -55 67.22 -55 56 C-47.9771875 55.443125 -47.9771875 55.443125 -40.8125 54.875 C-27.39957568 53.68688902 -13.2205592 52.1102796 -1 46 C-0.67 30.82 -0.34 15.64 0 0 Z " fill="#30C3E2" transform="translate(233,170)"/>
<path d="M0 0 C11.22 0 22.44 0 34 0 C32.51990126 14.80098738 28.02491419 25.85197015 17.16796875 36.26171875 C5.02247191 46 5.02247191 46 0 46 C0 30.82 0 15.64 0 0 Z " fill="#0E6BC0" transform="translate(233,170)"/>
<path d="M0 0 C0 14.52 0 29.04 0 44 C-10.56 44 -21.12 44 -32 44 C-32 31.14943355 -32 31.14943355 -28.625 24.9375 C-28.26704346 24.25631104 -27.90908691 23.57512207 -27.5402832 22.87329102 C-22.56809613 13.86873597 -11.19694859 0 0 0 Z " fill="#0C6AC0" transform="translate(266,259)"/>
<path d="M0 0 C14.88888889 0 14.88888889 0 19 3 C21.34168764 6.51253146 21.49623677 7.86469356 21 12 C19 14.875 19 14.875 17 17 C18.19899698 20.0831351 19.47700477 23.06279492 21 26 C18.75 25.875 18.75 25.875 16 25 C15.401875 24.01 14.80375 23.02 14.1875 22 C12.38388543 18.89482862 12.38388543 18.89482862 9.97265625 18.3828125 C7.99097229 18.15295109 5.99386317 18.06646211 4 18 C4 20.64 4 23.28 4 26 C2.68 26 1.36 26 0 26 C0 17.42 0 8.84 0 0 Z " fill="#1F75C4" transform="translate(341,326)"/>
<path d="M0 0 C2.3190918 0.16577148 2.3190918 0.16577148 5 1 C6.57739258 3.31665039 6.57739258 3.31665039 7.89453125 6.34765625 C8.37470703 7.42724609 8.85488281 8.50683594 9.34960938 9.61914062 C9.83236328 10.75544922 10.31511719 11.89175781 10.8125 13.0625 C11.56563477 14.77276367 11.56563477 14.77276367 12.33398438 16.51757812 C13.57312474 19.33809763 14.79410305 22.16514543 16 25 C14.68 25.33 13.36 25.66 12 26 C10 23 10 23 10 20 C5.05 20.33 0.1 20.66 -5 21 C-5.99 23.475 -5.99 23.475 -7 26 C-8.32 26 -9.64 26 -11 26 C-9.28137532 20.31531835 -6.8358325 15.01576119 -4.375 9.625 C-3.95476562 8.69816406 -3.53453125 7.77132813 -3.1015625 6.81640625 C-2.07035118 4.54305401 -1.03643137 2.27097594 0 0 Z " fill="#2177C5" transform="translate(319,326)"/>
<path d="M0 0 C1.32 0 2.64 0 4 0 C5.83944626 3.95552103 7.67051553 7.91486285 9.5 11.875 C10.02464844 13.00292969 10.54929688 14.13085938 11.08984375 15.29296875 C11.58613281 16.36933594 12.08242187 17.44570313 12.59375 18.5546875 C13.05458984 19.54968262 13.51542969 20.54467773 13.99023438 21.56982422 C15 24 15 24 15 26 C13.68 26 12.36 26 11 26 C10.34 24.35 9.68 22.7 9 21 C4.38 21 -0.24 21 -5 21 C-5.99 23.475 -5.99 23.475 -7 26 C-8.32 26 -9.64 26 -11 26 C-9.17271177 19.98069759 -6.89266112 14.25685097 -4.375 8.5 C-4.06167725 7.78134766 -3.74835449 7.06269531 -3.42553711 6.32226562 C-1.13112942 1.13112942 -1.13112942 1.13112942 0 0 Z " fill="#2177C5" transform="translate(180,326)"/>
<path d="M0 0 C5.94 0 11.88 0 18 0 C18 0.99 18 1.98 18 3 C13.38 3 8.76 3 4 3 C4 5.64 4 8.28 4 11 C8.29 11 12.58 11 17 11 C17 12.32 17 13.64 17 15 C12.71 15 8.42 15 4 15 C4 17.64 4 20.28 4 23 C8.95 23 13.9 23 19 23 C19 23.99 19 24.98 19 26 C12.73 26 6.46 26 0 26 C0 17.42 0 8.84 0 0 Z " fill="#2277C5" transform="translate(145,326)"/>
<path d="M0 0 C1.32 0 2.64 0 4 0 C4 3.63 4 7.26 4 11 C8.62 11 13.24 11 18 11 C18 7.37 18 3.74 18 0 C19.32 0 20.64 0 22 0 C22 8.58 22 17.16 22 26 C21.01 26 20.02 26 19 26 C19 22.04 19 18.08 19 14 C14.05 14 9.1 14 4 14 C4 17.96 4 21.92 4 26 C2.68 26 1.36 26 0 26 C0 17.42 0 8.84 0 0 Z " fill="#2076C5" transform="translate(250,326)"/>
<path d="M0 0 C5.94 0 11.88 0 18 0 C18 0.99 18 1.98 18 3 C13.38 3 8.76 3 4 3 C4 5.64 4 8.28 4 11 C8.29 11 12.58 11 17 11 C17 11.99 17 12.98 17 14 C12.71 14 8.42 14 4 14 C4 16.97 4 19.94 4 23 C8.95 23 13.9 23 19 23 C19 23.99 19 24.98 19 26 C12.73 26 6.46 26 0 26 C0 17.42 0 8.84 0 0 Z " fill="#1E75C4" transform="translate(370,326)"/>
<path d="M0 0 C0.99 0 1.98 0 3 0 C3 3.63 3 7.26 3 11 C7.95 11 12.9 11 18 11 C18 7.37 18 3.74 18 0 C19.32 0 20.64 0 22 0 C22 8.58 22 17.16 22 26 C20.68 26 19.36 26 18 26 C18 22.04 18 18.08 18 14 C13.05 14 8.1 14 3 14 C3 17.96 3 21.92 3 26 C2.01 26 1.02 26 0 26 C0 17.42 0 8.84 0 0 Z " fill="#1A72C3" transform="translate(113,326)"/>
<path d="M0 0 C1.29550781 -0.03867187 1.29550781 -0.03867187 2.6171875 -0.078125 C5.57524649 0.30891076 6.91701784 1.29875995 9.125 3.25 C8.795 4.24 8.465 5.23 8.125 6.25 C7.42375 5.92 6.7225 5.59 6 5.25 C2.72587325 4.11117331 0.56793875 3.81963266 -2.875 4.25 C-5.57490662 6.04993774 -7.4168865 7.333773 -8.875 10.25 C-9.12803321 14.12984253 -9.17954139 17.02364205 -6.875 20.25 C-3.8007266 22.19235139 -1.87529928 22.41755827 1.6875 21.875 C4.24230295 21.50448895 6.53171762 21.25 9.125 21.25 C9.125 22.24 9.125 23.23 9.125 24.25 C4.55851548 26.88046344 0.2789188 26.91659518 -4.875 26.25 C-9.01301324 24.18099338 -11.15307833 22.50099413 -12.875 18.25 C-13.62392176 13.95090104 -13.85572396 9.92264576 -11.6015625 6.078125 C-7.97065843 1.79188703 -5.69660068 0.10142316 0 0 Z " fill="#1A72C3" transform="translate(293.875,325.75)"/>
<path d="M0 0 C7.26 0 14.52 0 22 0 C22 1.32 22 2.64 22 4 C19.03 4 16.06 4 13 4 C13 11.26 13 18.52 13 26 C11.68 26 10.36 26 9 26 C9 18.74 9 11.48 9 4 C6.03 4 3.06 4 0 4 C0 2.68 0 1.36 0 0 Z " fill="#2D7EC8" transform="translate(222,326)"/>
<path d="M0 0 C1.875 0.3125 1.875 0.3125 3.875 1.375 C5.46404125 4.45376742 5.23273097 6.91405579 4.875 10.3125 C3.875 12.75 3.875 12.75 1.875 14.3125 C-1.70444791 14.96873212 -4.88054966 14.97361424 -8.125 13.25 C-9.71404125 10.17123258 -9.48273097 7.71094421 -9.125 4.3125 C-7.26781965 -0.21437711 -4.46586033 -0.26269767 0 0 Z " fill="#B3D0EB" transform="translate(132.125,193.6875)"/>
<path d="M0 0 C8.3984375 -0.1953125 8.3984375 -0.1953125 11 0 C13 2 13 2 13.375 4.9375 C13 8 13 8 11.5625 9.875 C7.65825344 11.58905947 4.24192127 11.18714359 0 11 C0 7.37 0 3.74 0 0 Z " fill="#FCFDFE" transform="translate(345,330)"/>
<path d="M0 0 C1.78923164 3.80211723 2.4671306 6.79582458 2 11 C-1 13 -1 13 -4 12.9375 C-7.00958932 12.69592029 -7.00958932 12.69592029 -8.875 14.5 C-9.24625 14.995 -9.6175 15.49 -10 16 C-9.4740625 14.329375 -9.4740625 14.329375 -8.9375 12.625 C-7.62760669 9.19735524 -7.62760669 9.19735524 -9 7 C-10.65 7 -12.3 7 -14 7 C-14 6.34 -14 5.68 -14 5 C-12.04350603 4.16235732 -10.08474444 3.33000941 -8.125 2.5 C-6.48917969 1.80390625 -6.48917969 1.80390625 -4.8203125 1.09375 C-2 0 -2 0 0 0 Z " fill="#3D88CC" transform="translate(375,194)"/>
<path d="M0 0 C0.99 0 1.98 0 3 0 C3 7.59 3 15.18 3 23 C7.62 23 12.24 23 17 23 C17 23.99 17 24.98 17 26 C11.39 26 5.78 26 0 26 C0 17.42 0 8.84 0 0 Z " fill="#0D6AC0" transform="translate(202,326)"/>
<path d="M0 0 C2.3125 0.75 2.3125 0.75 3.3125 1.75 C3.35313832 3.41617115 3.355221 5.08388095 3.3125 6.75 C4.9625 7.08 6.6125 7.41 8.3125 7.75 C8.3125 8.08 8.3125 8.41 8.3125 8.75 C6.0025 9.08 3.6925 9.41 1.3125 9.75 C1.3125 11.07 1.3125 12.39 1.3125 13.75 C0.9825 14.41 0.6525 15.07 0.3125 15.75 C-2.6575 12.78 -5.6275 9.81 -8.6875 6.75 C-5.07638889 -0.47222222 -5.07638889 -0.47222222 0 0 Z " fill="#3381CA" transform="translate(158.6875,152.25)"/>
<path d="M0 0 C4.2923933 1.07309833 4.93435824 1.63911806 7.625 4.875 C8.21539062 5.57367188 8.80578125 6.27234375 9.4140625 6.9921875 C11 9 11 9 13 12 C12.13375 11.649375 11.2675 11.29875 10.375 10.9375 C6.75174758 9.931041 4.6146678 10.13936481 1 11 C1 12.65 1 14.3 1 16 C0.34 16 -0.32 16 -1 16 C-0.67 10.72 -0.34 5.44 0 0 Z " fill="#408ACD" transform="translate(204,122)"/>
<path d="M0 0 C0.66 0 1.32 0 2 0 C2.67354499 1.43429001 3.33859701 2.87257057 4 4.3125 C4.556875 5.51326172 4.556875 5.51326172 5.125 6.73828125 C6 9 6 9 6 12 C2.7 12 -0.6 12 -4 12 C-3.33501617 7.61110675 -1.81242323 4.0188515 0 0 Z " fill="#E5EFF8" transform="translate(181,331)"/>
<path d="M0 0 C0.66 0 1.32 0 2 0 C2.67354499 1.43429001 3.33859701 2.87257057 4 4.3125 C4.556875 5.51326172 4.556875 5.51326172 5.125 6.73828125 C6 9 6 9 6 12 C2.7 12 -0.6 12 -4 12 C-2.66666667 8 -1.33333333 4 0 0 Z " fill="#E7F0F8" transform="translate(320,331)"/>
<path d="M0 0 C2.09230769 4.43076923 2.09230769 4.43076923 1.625 7.3125 C1.41875 7.869375 1.2125 8.42625 1 9 C0.34 6.69 -0.32 4.38 -1 2 C-2.32 2 -3.64 2 -5 2 C-4.67 4.64 -4.34 7.28 -4 10 C-4.66 10 -5.32 10 -6 10 C-6.33 7.69 -6.66 5.38 -7 3 C-8.65 3.33 -10.3 3.66 -12 4 C-11.34 6.97 -10.68 9.94 -10 13 C-10.66 13 -11.32 13 -12 13 C-12.66 9.37 -13.32 5.74 -14 2 C-4.42857143 -0.28571429 -4.42857143 -0.28571429 0 0 Z " fill="#488FCF" transform="translate(383,218)"/>
<path d="M0 0 C2.67901932 2.31881505 3.66204403 4.31814468 4.6875 7.6875 C5.06455078 8.89986328 5.06455078 8.89986328 5.44921875 10.13671875 C5.63097656 10.75160156 5.81273437 11.36648437 6 12 C7.32 9.36 8.64 6.72 10 4 C11.23593891 7.70781672 10.5678132 8.67510253 9.0625 12.1875 C8.68222656 13.08855469 8.30195313 13.98960937 7.91015625 14.91796875 C7.60980469 15.60503906 7.30945313 16.29210937 7 17 C6.34 17 5.68 17 5 17 C3.68 13.04 2.36 9.08 1 5 C-0.98 9.455 -0.98 9.455 -3 14 C-4.10084497 9.59662012 -3.7915332 8.73201586 -2.0625 4.75 C-1.68222656 3.85796875 -1.30195313 2.9659375 -0.91015625 2.046875 C-0.60980469 1.37140625 -0.30945313 0.6959375 0 0 Z " fill="#3885CB" transform="translate(288,120)"/>
<path d="M0 0 C2.57581852 1.98835114 3.50304732 4.43513385 4.78125 7.375 C3.79125 7.045 2.80125 6.715 1.78125 6.375 C0.59375 3.8125 0.59375 3.8125 -0.21875 1.375 C-2.19875 2.365 -2.19875 2.365 -4.21875 3.375 C-3.72375 4.15875 -3.22875 4.9425 -2.71875 5.75 C-1.21875 8.375 -1.21875 8.375 -1.21875 10.375 C-1.87875 10.375 -2.53875 10.375 -3.21875 10.375 C-4.60107443 8.74873596 -5.93812515 7.0824998 -7.21875 5.375 C-8.20875 5.87 -8.20875 5.87 -9.21875 6.375 C-9.074375 6.9525 -8.93 7.53 -8.78125 8.125 C-8.26041667 10.20833333 -7.73958333 12.29166667 -7.21875 14.375 C-10.5410214 11.48140878 -11.53959333 9.68585759 -12.21875 5.375 C-10.64828257 4.31403537 -9.06180483 3.27673765 -7.46875 2.25 C-6.58703125 1.66992188 -5.7053125 1.08984375 -4.796875 0.4921875 C-2.21875 -0.625 -2.21875 -0.625 0 0 Z " fill="#3D88CC" transform="translate(363.21875,174.625)"/>
<path d="M0 0 C0 0.66 0 1.32 0 2 C-0.99 2.66 -1.98 3.32 -3 4 C-2.01858061 6.45354848 -1.27754408 7.79646768 0.875 9.375 C3.0374568 10.26165872 3.0374568 10.26165872 5.1328125 9.0390625 C5.74898438 8.69617188 6.36515625 8.35328125 7 8 C6.06409496 9.1055189 5.12620142 10.20935453 4.1875 11.3125 C3.40439453 12.23482422 3.40439453 12.23482422 2.60546875 13.17578125 C1.12827531 14.85424679 -0.40039131 16.43882034 -2 18 C-2.66 17.67 -3.32 17.34 -4 17 C-3.01 16.01 -2.02 15.02 -1 14 C-2.24976756 10.34683329 -2.67098753 9.21934164 -6 7 C-6.99 7.99 -7.98 8.98 -9 10 C-9.66 9.67 -10.32 9.34 -11 9 C-9.54782324 7.49403892 -8.08807139 5.99537896 -6.625 4.5 C-5.40683594 3.24703125 -5.40683594 3.24703125 -4.1640625 1.96875 C-2 0 -2 0 0 0 Z " fill="#3381CA" transform="translate(346,153)"/>
<path d="M0 0 C1.5625 1.6875 1.5625 1.6875 3 4 C2.6875 6.75 2.6875 6.75 2 9 C-0.375 9.1875 -0.375 9.1875 -3 9 C-5 6 -5 6 -5 2 C-3.35 1.34 -1.7 0.68 0 0 Z " fill="#EEF4FA" transform="translate(373,196)"/>
<path d="M0 0 C1.2065625 0.0309375 1.2065625 0.0309375 2.4375 0.0625 C2.7675 1.7125 3.0975 3.3625 3.4375 5.0625 C1.7875 6.3825 0.1375 7.7025 -1.5625 9.0625 C-2.8825 7.7425 -4.2025 6.4225 -5.5625 5.0625 C-3.15007962 0.07683121 -3.15007962 0.07683121 0 0 Z " fill="#F3F8FC" transform="translate(157.5625,153.9375)"/>
<path d="M0 0 C2.97 1.32 5.94 2.64 9 4 C9 4.66 9 5.32 9 6 C8.236875 5.690625 7.47375 5.38125 6.6875 5.0625 C4.81210323 4.32106407 2.91315348 3.63771783 1 3 C0.67 4.65 0.34 6.3 0 8 C-0.99 8 -1.98 8 -3 8 C-3.33 9.65 -3.66 11.3 -4 13 C-2.824375 13.433125 -2.824375 13.433125 -1.625 13.875 C1 15 1 15 3 17 C-0.82097239 16.46930939 -3.06171403 15.50298434 -6 13 C-5.02566703 8.11713593 -2.45878594 4.28711394 0 0 Z " fill="#3684CB" transform="translate(313,130)"/>
<path d="M0 0 C2.48620049 1.06551449 4.03717151 2.03837059 5.9375 4 C8.18008724 6.17463005 10.06219679 7.02073226 13 8 C13 8.33 13 8.66 13 9 C12.26394531 9.13277344 11.52789062 9.26554688 10.76953125 9.40234375 C9.79371094 9.57894531 8.81789063 9.75554687 7.8125 9.9375 C6.84957031 10.11152344 5.88664062 10.28554687 4.89453125 10.46484375 C2.25760028 10.9523735 -0.3719905 11.46671105 -3 12 C-3 11.34 -3 10.68 -3 10 C-0.09399739 8.74335022 1.79604584 8 5 8 C3.85123314 4.55369942 2.80859085 4.08379321 0 2 C0 1.34 0 0.68 0 0 Z " fill="#4F93D1" transform="translate(117,217)"/>
<path d="M0 0 C0.33 0.66 0.66 1.32 1 2 C0.01 2.495 0.01 2.495 -1 3 C-0.56540502 6.04216487 -0.00953604 7.98459562 1.625 10.625 C2.305625 11.800625 2.305625 11.800625 3 13 C2.67 13.99 2.34 14.98 2 16 C0.02 12.7 -1.96 9.4 -4 6 C-5.65 6.33 -7.3 6.66 -9 7 C-9 6.34 -9 5.68 -9 5 C-6.03 3.35 -3.06 1.7 0 0 Z " fill="#3F89CD" transform="translate(188,129)"/>
<path d="M0 0 C0.33 0 0.66 0 1 0 C1.18451025 9.41002278 1.18451025 9.41002278 0 14 C-0.66 14 -1.32 14 -2 14 C-1.85795259 12.41632253 -1.71119847 10.83306682 -1.5625 9.25 C-1.48128906 8.36828125 -1.40007812 7.4865625 -1.31640625 6.578125 C-1.03761535 4.30649548 -0.61209423 2.20148177 0 0 Z " fill="#458DCE" transform="translate(272,117)"/>
<path d="M0 0 C1.65 1.65 3.3 3.3 5 5 C3.02 5.66 1.04 6.32 -1 7 C-0.67 4.69 -0.34 2.38 0 0 Z " fill="#EDF4FA" transform="translate(206,125)"/>
<path d="M0 0 C1.32 0.33 2.64 0.66 4 1 C3.01 1.495 3.01 1.495 2 2 C2.66 4.97 3.32 7.94 4 11 C3.34 11 2.68 11 2 11 C1.34 7.37 0.68 3.74 0 0 Z " fill="#5597D3" transform="translate(369,220)"/>
<path d="M0 0 C2.97 1.32 5.94 2.64 9 4 C9 4.66 9 5.32 9 6 C8.236875 5.690625 7.47375 5.38125 6.6875 5.0625 C4.81210323 4.32106407 2.91315348 3.63771783 1 3 C0.34 3.66 -0.32 4.32 -1 5 C-1.33 4.34 -1.66 3.68 -2 3 C-1.34 2.01 -0.68 1.02 0 0 Z " fill="#458DCE" transform="translate(313,130)"/>
<path d="M0 0 C3.36720387 1.39332574 4.9859524 2.9789286 7 6 C6.34 6.66 5.68 7.32 5 8 C4.67 7.01 4.34 6.02 4 5 C2.67151309 3.99357052 1.33849671 2.99307821 0 2 C0 1.34 0 0.68 0 0 Z " fill="#629ED6" transform="translate(117,217)"/>
</svg>
